<!DOCTYPE svg PUBLIC "-//W3C//DTD SVG 1.1//EN" "http://www.w3.org/Graphics/SVG/1.1/DTD/svg11.dtd">
<!-- Uploaded to: SVG Repo, www.svgrepo.com, Transformed by: SVG Repo Mixer Tools -->
<svg fill="#ffffff" height="800px" width="800px" version="1.1" id="Layer_1" xmlns="http://www.w3.org/2000/svg" xmlns:xlink="http://www.w3.org/1999/xlink" viewBox="-14.72 -14.72 520.11 520.11" xml:space="preserve" stroke="#ffffff" stroke-width="14.229342999999997">
<g id="SVGRepo_bgCarrier" stroke-width="0"/>
<g id="SVGRepo_tracerCarrier" stroke-linecap="round" stroke-linejoin="round"/>
<g id="SVGRepo_iconCarrier"> <g> <g> <g> <path d="M245.333,0C110.059,0,0,110.059,0,245.333s110.059,245.333,245.333,245.333s245.333-110.059,245.333-245.333 S380.608,0,245.333,0z M245.333,469.333c-123.52,0-224-100.48-224-224c0-57.92,22.293-110.613,58.496-150.421L176.917,192 h-59.584c-5.888,0-10.667,4.779-10.667,10.667s4.779,10.667,10.667,10.667h32V352c0,5.888,4.779,10.667,10.667,10.667 s10.667-4.779,10.667-10.667v-61.12c14.763,3.264,39.488,7.787,64,7.787c21.184,0,34.219-2.859,42.091-6.827l21.909,21.909V352 c0,5.888,4.779,10.667,10.667,10.667S320,357.888,320,352v-16.917l75.755,75.755C355.947,447.04,303.253,469.333,245.333,469.333 z M410.837,395.755l-93.952-93.952L94.933,79.851c39.808-36.203,92.501-58.496,150.421-58.496 c123.499-0.021,223.979,100.459,223.979,223.979C469.333,303.253,447.04,355.947,410.837,395.755z"/> <path d="M389.483,172.181l-48.149-28.885v-25.963c0-4.949-3.413-9.259-8.213-10.389c-4.779-1.152-9.771,1.173-11.989,5.611 l-30.869,61.76c-5.227,10.453-15.851,17.173-27.733,17.515c-4.245,0.128-8.021,2.773-9.6,6.72 c-1.579,3.947-0.64,8.469,2.368,11.477l47.979,48c2.027,2.027,4.757,3.115,7.552,3.115c1.003,0,2.005-0.128,2.987-0.427 c3.733-1.088,6.592-4.139,7.424-7.957c1.173-5.333,2.816-9.28,5.163-12.416l18.859-25.131l24.704,8.235 c5.632,1.899,11.627-1.152,13.483-6.741l10.667-32C395.691,179.947,393.771,174.763,389.483,172.181z"/> </g> </g> </g> </g>
</svg>